<svg xmlns="http://www.w3.org/2000/svg" width="1089" height="669" fill="none" fill-rule="evenodd" xmlns:v="https://vecta.io/nano"><path d="M740.1 259.1h208v229.8h-208V259.1zm-598.1 0h188v188.8H142V259.1zm303.2 200.3h188v147.1h-188V459.4h0z" stroke="#000" stroke-dasharray="7 3"/><g fill-rule="nonzero"><path stroke="#497490" stroke-width="2.5" fill="#fff" d="M739.1 207.5h210v52h-210z"/><path fill="#c22e4a" d="M539.2 259.1l4.8-4.8h-3.6v-64.8H538v64.8h-3.5zm206.4-108l-4.8-4.8v3.6H637v2.4h103.8v3.5zm-409.3 0l4.8 4.7v-3.5h103.8v-2.4H341.1v-3.6z"/><path d="M826.5 283.5h5.6v16.4h-5.6v-16.4zm-6.8.1l-11.4 6.9c-.2.1-.4.1-.5 0l-11.4-6.9c-.2-.1-.5-.2-.8-.2-.9 0-1.6.7-1.6 1.6v14.9h5.6v-7.1c0-.3.2-.6.6-.6.1 0 .2 0 .3.1l6.4 3.9c.6.4 1.4.4 2.1 0l6.7-3.9c.3-.2.6-.1.8.2.1.1.1.2.1.3v7.1h5.6V285c0-.9-.7-1.6-1.6-1.6-.4 0-.6.1-.9.2zm40.3-.1h-5.7v7.5c0 .3-.3.6-.6.6-.1 0-.2 0-.3-.1l-14.7-7.8c-.2-.1-.5-.2-.7-.2-.9 0-1.6.7-1.6 1.6V300h5.6v-7.4c0-.3.2-.6.6-.6.1 0 .2 0 .3.1l14.8 7.8c.8.4 1.7.1 2.1-.6.1-.2.2-.5.2-.7v-15.1zm4.6 16.4v-16.4h2.6v16.4h-2.6zm17.6.3c-6.9 0-11.9-3.3-11.9-8.6 0-5.2 4.9-8.6 11.9-8.6s11.9 3.3 11.9 8.6-4.9 8.6-11.9 8.6zm0-14.9c-5.2 0-9.1 2.3-9.1 6.4 0 4.1 4 6.4 9.1 6.4 5.2 0 9.2-2.2 9.2-6.4-.1-4.2-4.1-6.4-9.2-6.4z" fill="#c62d48"/><path stroke="#497490" stroke-width="2.5" fill="#fff" d="M141 207.5h190v52H141z"/><path d="M218.4 283.5h5.6v16.4h-5.6v-16.4zm-6.7.1l-11.4 6.9c-.2.1-.4.1-.5 0l-11.4-6.9c-.2-.1-.5-.2-.8-.2-.9 0-1.6.7-1.6 1.6v14.9h5.6v-7.1c0-.3.2-.6.6-.6.1 0 .2 0 .3.1l6.4 3.9c.6.4 1.4.4 2.1 0l6.7-3.9c.3-.2.6-.1.8.2.1.1.1.2.1.3v7.1h5.6V285c0-.9-.7-1.6-1.6-1.6-.4 0-.7.1-.9.2zm40.3-.1h-5.7v7.5c0 .3-.3.6-.6.6-.1 0-.2 0-.3-.1l-14.7-7.8c-.2-.1-.5-.2-.7-.2-.9 0-1.6.7-1.6 1.6V300h5.6v-7.4c0-.3.2-.6.6-.6.1 0 .2 0 .3.1l14.8 7.8c.8.4 1.7.1 2.1-.6.1-.2.2-.5.2-.7v-15.1zm4.5 16.4v-16.4h2.6v16.4h-2.6zm17.6.3c-6.9 0-11.9-3.3-11.9-8.6 0-5.2 4.9-8.6 11.9-8.6s11.9 3.3 11.9 8.6-4.8 8.6-11.9 8.6zm0-14.9c-5.2 0-9.1 2.3-9.1 6.4 0 4.1 4 6.4 9.1 6.4 5.2 0 9.2-2.2 9.2-6.4s-4-6.4-9.2-6.4z" fill="#c62d48"/><path stroke="#497490" stroke-width="2.5" fill="#fff" d="M444.2 407.5h190v52h-190v-52z"/><path d="M521.6 483.8h5.6v16.4h-5.6v-16.4zm-6.7.1l-11.4 6.9c-.2.1-.4.1-.5 0l-11.4-6.9c-.2-.1-.5-.2-.8-.2-.9 0-1.6.7-1.6 1.6v14.9h5.6v-7.1c0-.3.2-.6.6-.6.1 0 .2 0 .3.1l6.4 3.9c.6.4 1.4.4 2.1 0l6.7-3.9c.3-.2.6-.1.8.2.1.1.1.2.1.3v7.1h5.6v-14.9c0-.9-.7-1.6-1.6-1.6-.4 0-.7.1-.9.2zm40.3-.1h-5.7v7.5c0 .3-.3.6-.6.6-.1 0-.2 0-.3-.1l-14.7-7.8c-.2-.1-.5-.2-.7-.2-.9 0-1.6.7-1.6 1.6v14.9h5.6v-7.4c0-.3.2-.6.6-.6.1 0 .2 0 .3.1l14.8 7.8c.8.4 1.7.1 2.1-.6.1-.2.2-.5.2-.7v-15.1zm4.5 16.4v-16.4h2.6v16.4h-2.6zm17.6.4c-6.9 0-11.9-3.3-11.9-8.6 0-5.2 4.9-8.6 11.9-8.6s11.9 3.3 11.9 8.6-4.8 8.6-11.9 8.6zm0-15c-5.2 0-9.1 2.3-9.1 6.4 0 4.1 4 6.4 9.1 6.4 5.2 0 9.2-2.2 9.2-6.4 0-4.1-4-6.4-9.2-6.4z" fill="#c62d48"/><g fill="#000"><path d="M783.6 336.3h-2.7l-5.1-13.3h2.3l4.1 11.1 4.2-11.1h2.2zm21.5 0H803v-11l-3.9 9.6h-2.3l-3.9-9.5v10.8h-2.1V323h3.3l3.9 9.5 3.9-9.5h3.3v13.3zm13.1-2.2l2.1-7h2.1l-3 9.1H817l-2.3-6.9-2.3 6.9h-2.3l-3-9.1h2.1l2.1 6.9 2.2-6.9h2.3zm14.9 2.2h-2v-1.1c-.6.8-1.6 1.3-2.9 1.3-2.5 0-4.6-2-4.6-4.8s2-4.8 4.6-4.8c1.3 0 2.2.5 2.9 1.3v-1.1h2v9.2zm-7.4-4.6c0 1.6 1 2.9 2.7 2.9 1.6 0 2.7-1.3 2.7-2.9 0-1.7-1.1-2.9-2.7-2.9s-2.7 1.3-2.7 2.9zm16.6-4.5l-.5 2c-.4-.2-1-.3-1.5-.3-1.3 0-2.2.9-2.2 2.4v5h-2v-9.1h2v1c.6-.9 1.5-1.3 2.6-1.3.7.1 1.2.1 1.6.3zm9.9 4.5v.7h-6.7c.3 1.6 1.4 2.3 2.7 2.3.9 0 1.9-.4 2.6-1l1 1.4c-1.1 1-2.4 1.3-3.7 1.3-2.7 0-4.7-1.9-4.7-4.8s1.9-4.8 4.5-4.8c2.5.2 4.3 2.1 4.3 4.9zm-6.8-.7h4.7c-.2-1.4-1-2.2-2.3-2.2-1.4-.1-2.2.8-2.4 2.2zm23.6-6h-4.3v11.3h-2.1V325h-4.3v-2H869zm9.3 11.3h-2v-1.1c-.6.8-1.6 1.3-2.9 1.3-2.5 0-4.6-2-4.6-4.8s2-4.8 4.6-4.8c1.3 0 2.2.5 2.9 1.3v-1.1h2v9.2zm-7.4-4.6c0 1.6 1 2.9 2.7 2.9 1.6 0 2.7-1.3 2.7-2.9 0-1.7-1.1-2.9-2.7-2.9-1.7 0-2.7 1.3-2.7 2.9zm18.9-1.1v5.7h-2v-5.1c0-1.5-.8-2.4-2.1-2.4s-2.4.8-2.4 2.4v5h-2v-9.1h2v1.1c.7-1.1 1.9-1.3 2.8-1.3 2.2.1 3.7 1.5 3.7 3.7zm10.2-2l-5 5.9h5.1v1.8h-7.7v-1.4l5.1-5.9h-4.9v-1.8h7.5v1.4zm11.1 3.8c0 2.9-2.1 4.1-4.2 4.1s-4.2-1.2-4.2-4.1v-5.2h2v5.1c0 1.8 1 2.4 2.2 2.4s2.2-.6 2.2-2.4v-5.1h2v5.2zm-146.6 31.4c3.1 0 4.7 1.4 4.7 3.8 0 2.3-1.7 3.8-4.4 3.9l4.4 5.6h-2.7l-4.2-5.6h-1.1v5.6H759v-13.3h5.5zm-3.4 2v3.7h3.3c1.7 0 2.5-.6 2.5-1.9s-.9-1.8-2.5-1.8h-3.3zm18.5 6.7v.7h-6.7c.3 1.6 1.4 2.3 2.7 2.3.9 0 1.9-.4 2.6-1l1 1.4c-1.1 1-2.4 1.3-3.7 1.3-2.7 0-4.7-1.9-4.7-4.8s1.9-4.8 4.5-4.8c2.6.1 4.3 2.1 4.3 4.9zm-6.7-.8h4.7c-.2-1.4-1-2.2-2.3-2.2-1.4 0-2.2.9-2.4 2.2zm15.9-2.6v-5.7h2v13.7h-2V376c-.6.8-1.6 1.3-2.9 1.3-2.5 0-4.6-2-4.6-4.8s2-4.8 4.6-4.8c1.4 0 2.3.6 2.9 1.4zm-5.3 3.4c0 1.6 1 2.9 2.7 2.9 1.6 0 2.7-1.3 2.7-2.9 0-1.7-1.1-2.9-2.7-2.9-1.7 0-2.7 1.3-2.7 2.9zm18-3.1h7.2v-5.6h2.1v13.3h-2.1v-5.7h-7.2v5.7h-2.1v-13.3h2.1zm21.4 7.7h-2V376c-.6.8-1.6 1.3-2.9 1.3-2.5 0-4.6-2-4.6-4.8s2-4.8 4.6-4.8c1.3 0 2.2.5 2.9 1.3v-1h2v9.1zm-7.4-4.6c0 1.6 1 2.9 2.7 2.9 1.6 0 2.7-1.3 2.7-2.9 0-1.7-1.1-2.9-2.7-2.9s-2.7 1.3-2.7 2.9zm16.7-2.7h-3.5v4c0 1.2.6 1.7 1.4 1.7.6 0 1.3-.3 1.8-.6l.8 1.6c-.7.5-1.7.9-2.8.9-2.1 0-3.3-1.1-3.3-3.5v-4h-1.8V368h1.8v-2.8h2v2.8h3.5v1.8h.1zm21 .6c0 4-2.9 6.9-7 6.9s-7-2.9-7-6.9 2.9-6.9 7-6.9 7 3 7 6.9zm-11.7 0c0 2.9 2 4.8 4.7 4.8s4.7-2 4.7-4.8-2-4.8-4.7-4.8-4.7 2-4.7 4.8zm23.7 2.1c0 2.8-2 4.8-4.6 4.8-1.3 0-2.2-.5-2.9-1.3v4.9h-2V368h2v1.1c.6-.8 1.6-1.3 2.9-1.3 2.6-.1 4.6 1.9 4.6 4.7zm-7.5 0c0 1.7 1.1 2.9 2.7 2.9 1.7 0 2.7-1.3 2.7-2.9s-1-2.9-2.7-2.9c-1.6 0-2.7 1.3-2.7 2.9zm18.2 0v.7h-6.7c.3 1.6 1.4 2.3 2.7 2.3.9 0 1.9-.4 2.6-1l1 1.4c-1.1 1-2.4 1.3-3.7 1.3-2.7 0-4.7-1.9-4.7-4.8s1.9-4.8 4.5-4.8c2.5.1 4.3 2.1 4.3 4.9zm-6.8-.8h4.7c-.2-1.4-1-2.2-2.3-2.2-1.4 0-2.2.9-2.4 2.2zm17.7-.3v5.7h-2V372c0-1.5-.8-2.4-2.1-2.4s-2.4.8-2.4 2.4v5h-2v-9h2v1.1c.7-1.1 1.9-1.3 2.8-1.3 2.2-.1 3.7 1.4 3.7 3.6zm9.2-1.1c-.6-.3-1.7-.8-2.8-.8s-1.7.4-1.7 1.1c0 .6.7.8 1.5.9l.9.1c2 .3 3.2 1.1 3.2 2.7 0 1.7-1.5 3-4.1 3-.9 0-2.6-.2-3.9-1.2l.9-1.5c.7.5 1.5.9 3 .9 1.4 0 2.1-.4 2.1-1.1 0-.5-.5-.9-1.6-1l-1-.1c-2-.3-3.1-1.2-3.1-2.7 0-1.8 1.4-2.9 3.8-2.9 1.4 0 2.7.4 3.7 1l-.9 1.6zm5.4-1.2c.7-1 1.9-1.3 2.8-1.3 2.2 0 3.7 1.5 3.7 3.6v5.7h-2V372c0-1.5-.8-2.4-2.1-2.4s-2.4.8-2.4 2.4v5h-2v-13.7h2v5.8zm11.9-4.3c0 .8-.6 1.4-1.4 1.4s-1.4-.6-1.4-1.4.6-1.4 1.4-1.4 1.4.6 1.4 1.4zm-.4 12.3h-2V368h2v9.1zm9-7.3h-3.1v7.3h-2v-7.3H915V368h1.8v-1.5c0-1.8.9-3.3 3.1-3.3 1.1 0 1.9.3 2.5.7l-.7 1.7c-.5-.3-1.1-.5-1.7-.5-.8 0-1.2.5-1.2 1.4v1.5h3.1v1.8zm8.2 0h-3.5v4c0 1.2.6 1.7 1.4 1.7.6 0 1.3-.3 1.8-.6l.8 1.6c-.7.5-1.7.9-2.8.9-2.1 0-3.3-1.1-3.3-3.5v-4h-1.8V368h1.8v-2.8h2v2.8h3.5v1.8h.1zM787 409.3h7.2v-5.6h2.1V417h-2.1v-5.7H787v5.7h-2.1v-13.3h2.1zm15.1 2.5v5.2H800v-13.3h5.2c3.1 0 4.7 1.5 4.7 4s-1.6 4-4.7 4h-3.1v.1zm0-6v4h3c1.7 0 2.5-.6 2.5-2s-.8-2-2.5-2h-3zm20.2 11.3h-9.7v-13.3h9.6v2h-7.4v3.6h7.2v2h-7.2v3.7h7.6v2zm18 0h-9.7v-13.3h9.6v2h-7.4v3.6h7.2v2h-7.2v3.7h7.6v2zm10.2-7.7l-5 5.9h5.1v1.8h-7.7v-1.4l5.1-5.9h-5V408h7.5zm17.7 1.9v5.7h-2v-5c0-1.5-.8-2.4-2.1-2.4s-2.4.8-2.4 2.4v5h-2v-5c0-1.5-.8-2.4-2.1-2.4s-2.4.8-2.4 2.4v5h-2v-9.1h2v1.1c.7-1.1 1.9-1.3 2.8-1.3 1.4 0 2.5.6 3.1 1.6.8-1.3 2.2-1.6 3.3-1.6 2.2 0 3.8 1.5 3.8 3.6zm11.2 1.2v.7h-6.7c.3 1.6 1.4 2.3 2.7 2.3.9 0 1.9-.4 2.6-1l1 1.4c-1.1 1-2.4 1.3-3.7 1.3-2.7 0-4.7-1.9-4.7-4.8s1.9-4.8 4.5-4.8c2.5.1 4.3 2 4.3 4.9zm-6.8-.8h4.7c-.2-1.4-1-2.2-2.3-2.2-1.4 0-2.2.9-2.4 2.2zM888 408l-.5 2c-.4-.2-1-.3-1.5-.3-1.3 0-2.2.9-2.2 2.4v5h-2V408h2v1c.6-.9 1.5-1.3 2.6-1.3.6 0 1.1.1 1.6.3zm10.3 9.1h-2V416c-.6.8-1.6 1.3-2.9 1.3-2.5 0-4.6-2-4.6-4.8s2-4.8 4.6-4.8c1.3 0 2.2.5 2.9 1.3v-1.1h2v9.2zm-7.3-4.6c0 1.6 1 2.9 2.7 2.9 1.6 0 2.7-1.3 2.7-2.9 0-1.7-1.1-2.9-2.7-2.9-1.7 0-2.7 1.3-2.7 2.9zm12.5 4.6h-2v-13.7h2zm-90.1 28.6c3.1 0 4.7 1.4 4.7 3.8 0 2.3-1.7 3.8-4.4 3.9l4.4 5.6h-2.7l-4.2-5.6h-1.1v5.6H808v-13.3h5.4zm-3.3 2.1v3.7h3.3c1.7 0 2.5-.6 2.5-1.9s-.9-1.8-2.5-1.8h-3.3zm19 11.2h-2v-1c-.6.8-1.6 1.3-2.9 1.3-2.5 0-4.6-2-4.6-4.8s2-4.8 4.6-4.8c1.3 0 2.2.5 2.9 1.3v-1.1h2v9.1zm-7.3-4.5c0 1.6 1 2.9 2.7 2.9 1.6 0 2.7-1.3 2.7-2.9 0-1.7-1.1-2.9-2.7-2.9-1.7 0-2.7 1.3-2.7 2.9zm18.9-1.2v5.7h-2v-5c0-1.5-.8-2.4-2.1-2.4s-2.4.8-2.4 2.4v5h-2v-9.1h2v1.1c.7-1.1 1.9-1.3 2.8-1.3 2.2 0 3.7 1.5 3.7 3.6zm10.5-2.1l-1.3 1.4c-.6-.6-1.3-.9-2.2-.9-1.5 0-2.7 1.2-2.7 2.9s1.2 2.9 2.7 2.9c.9 0 1.7-.4 2.2-1l1.2 1.4c-.8 1-2 1.5-3.4 1.5-2.9 0-4.8-2.1-4.8-4.8s1.9-4.8 4.8-4.8c1.5-.1 2.7.4 3.5 1.4zm4.3-.2c.7-1 1.9-1.3 2.8-1.3 2.2 0 3.7 1.5 3.7 3.6v5.7h-2v-5c0-1.5-.8-2.4-2.1-2.4s-2.4.8-2.4 2.4v5h-2v-13.7h2v5.7zm17.6 3.5v.7h-6.7c.3 1.6 1.4 2.3 2.7 2.3.9 0 1.9-.4 2.6-1l1 1.4c-1.1 1-2.4 1.3-3.7 1.3-2.7 0-4.7-1.9-4.7-4.8s1.9-4.8 4.5-4.8c2.6.1 4.3 2 4.3 4.9zm-6.7-.8h4.7c-.2-1.4-1-2.2-2.3-2.2-1.4 0-2.2.9-2.4 2.2zm15.3-3.7l-.5 2c-.4-.2-1-.3-1.5-.3-1.3 0-2.2.9-2.2 2.4v5h-2V450h2v1c.6-.9 1.5-1.3 2.6-1.3.7 0 1.2.1 1.6.3z"/><path d="M227.9 337.2h-9.7v-13.3h9.6v2h-7.4v3.6h7.2v2h-7.2v3.7h7.6v2zm6.7-5.6h-1.3v5.7h-2.1V324h2.1v5.6h1.3l5-5.6h2.8l-6 6.5 6.4 6.8h-2.9zm18.7-4.7c-1.1-.7-2.4-1.1-3.7-1.1-1.8 0-3 .8-3 2 0 1.1 1 1.5 2.8 1.8l.9.1c2.2.3 4.3 1.2 4.3 3.7 0 2.7-2.5 4.2-5.3 4.2-1.8 0-4-.6-5.4-1.8l1.2-1.7c.9.8 2.6 1.5 4.2 1.5 1.7 0 3.1-.7 3.1-2 0-1-1-1.5-3-1.8l-1-.1c-2-.3-3.9-1.2-3.9-3.7 0-2.7 2.4-4.2 5.2-4.2 1.9 0 3.5.5 4.8 1.4l-1.2 1.7zm-23.8 50.3h-2.3l-1.3-3.4h-6l-1.3 3.4h-2.2l5.3-13.3h2.7l5.1 13.3zm-8.9-5.4h4.4l-2.2-5.7-2.2 5.7zm14.4-.2h-1.3v5.7h-2.1V364h2.1v5.6h1.3l5-5.6h2.8l-6 6.5 6.4 6.8h-2.9zm18.7-4.7c-1.1-.7-2.4-1.1-3.7-1.1-1.8 0-3 .8-3 2 0 1.1 1 1.5 2.8 1.8l.9.1c2.2.3 4.3 1.2 4.3 3.7 0 2.7-2.5 4.2-5.3 4.2-1.8 0-4-.6-5.4-1.8l1.2-1.7c.9.8 2.6 1.5 4.2 1.5 1.7 0 3.1-.7 3.1-2 0-1-1-1.5-3-1.8l-1-.1c-2-.3-3.9-1.2-3.9-3.7 0-2.7 2.4-4.2 5.2-4.2 1.9 0 3.5.5 4.8 1.4l-1.2 1.7zm-25.5 39.9l-1.6 1.5c-.8-1-2.1-1.6-3.6-1.6-2.7 0-4.7 2-4.7 4.8s2 4.8 4.6 4.8c2.4 0 3.8-1.3 4.2-3.5h-3.5v-2h5.9v.5c0 3.8-2.4 7-6.5 7-3.4 0-6.9-2.5-6.9-6.9 0-4 2.9-6.9 7-6.9 2 .1 3.9.9 5.1 2.3zm7.6 5.7h-1.3v5.7h-2.1v-13.3h2.1v5.6h1.3l5-5.6h2.8l-6 6.5 6.4 6.8h-2.9zm19.8 5.7h-9.7v-13.3h9.6v2H248v3.6h7.2v2H248v3.7h7.6zm256 118.7h-2.1v-11l-3.9 9.6h-2.3l-3.9-9.5v10.8h-2.1v-13.3h3.3l3.9 9.5 3.9-9.5h3.3v13.4zm5.8-12.2c0 .8-.6 1.4-1.4 1.4s-1.4-.6-1.4-1.4.6-1.4 1.4-1.4 1.4.6 1.4 1.4zm-.4 12.2h-2v-9.1h2v9.1zm10.6-7.9l-1.3 1.4c-.6-.6-1.3-.9-2.2-.9-1.5 0-2.7 1.2-2.7 2.9s1.2 2.9 2.7 2.9c.9 0 1.7-.4 2.2-1l1.2 1.4c-.8 1-2 1.5-3.4 1.5-2.9 0-4.8-2.1-4.8-4.8s1.9-4.8 4.8-4.8c1.5 0 2.7.5 3.5 1.4zm8.4-1.1l-.5 2c-.4-.2-1-.3-1.5-.3-1.3 0-2.2.9-2.2 2.4v5h-2v-9.1h2v1c.6-.9 1.5-1.3 2.6-1.3.7 0 1.1.1 1.6.3zm10.8 4.5c0 2.7-2.1 4.8-4.9 4.8s-4.9-2.1-4.9-4.8 2.1-4.8 4.9-4.8 4.9 2.1 4.9 4.8zm-7.8 0c0 1.7 1.2 2.9 2.9 2.9s2.9-1.2 2.9-2.9-1.2-2.9-2.9-2.9-2.9 1.2-2.9 2.9zm13.9-1.1h-1.3v5.7h-2.1v-13.3h2.1v5.6h1.3l5-5.6h2.8l-6 6.5 6.4 6.8h-2.9zm19.1-4.1c0 1.5-.9 2.5-2 3 1.3.5 2.4 1.5 2.4 3.1 0 2.4-2.3 3.8-5.1 3.8s-5.1-1.4-5.1-3.8c0-1.6 1-2.6 2.4-3.1-1.2-.5-2-1.5-2-3 0-2.4 2.1-3.8 4.8-3.8s4.6 1.4 4.6 3.8zm-7.6 6c0 1.3 1.3 2 2.9 2s2.9-.7 2.9-2-1.3-2.1-2.9-2.1c-1.6.1-2.9.8-2.9 2.1zm.3-5.9c0 1.3 1.2 2 2.6 2s2.6-.7 2.6-2-1.2-2-2.6-2-2.6.7-2.6 2zm16.4 2.8c-.6-.3-1.7-.8-2.8-.8s-1.7.4-1.7 1.1c0 .6.7.8 1.5.9l.9.1c2 .3 3.2 1.1 3.2 2.7 0 1.7-1.5 3-4.1 3-.9 0-2.6-.2-3.9-1.2l.9-1.5c.7.5 1.5.9 3 .9 1.4 0 2.1-.4 2.1-1.1 0-.5-.5-.9-1.6-1l-1-.1c-2-.3-3.1-1.2-3.1-2.7 0-1.8 1.4-2.9 3.8-2.9 1.4 0 2.7.4 3.7 1l-.9 1.6zm-53.6 42h-1.3v5.7H524v-13.3h2.1v5.6h1.3l5-5.6h2.8l-6 6.5 6.4 6.8h-2.9zm17.8-4a3.17 3.17 0 0 1-2 3c1.4.6 2.3 1.6 2.3 3.1 0 2.6-2.3 3.9-4.7 3.9-2 0-3.6-.7-4.6-1.9l1.3-1.4c.8.9 2 1.4 3.2 1.4 1.5 0 2.6-.7 2.6-2s-1.3-2-2.9-2H539v-1.9h1.6c1.4 0 2.6-.6 2.6-2 0-1.3-1.1-2-2.5-2-1.2 0-2.2.7-2.7 1.4l-1.5-1.3c.8-1.2 2.2-2.1 4.3-2.1 2.7 0 4.5 1.5 4.5 3.8zm9 2.9c-.6-.3-1.7-.8-2.8-.8s-1.7.4-1.7 1.1c0 .6.7.8 1.5.9l.9.1c2 .3 3.2 1.1 3.2 2.7 0 1.7-1.5 3-4.1 3-.9 0-2.6-.2-3.9-1.2l.9-1.5c.7.5 1.5.9 3 .9 1.4 0 2.1-.4 2.1-1.1 0-.5-.5-.9-1.6-1l-1-.1c-2-.3-3.1-1.2-3.1-2.7 0-1.8 1.4-2.9 3.8-2.9 1.4 0 2.7.4 3.7 1l-.9 1.6zm242.4-336.1h-1.2v5.5h-2.7V227h2.7v5.4h1.3l4.4-5.4h3.3l-5.6 6.5 6 6.8h-3.4zm17.4 1.5c0 2.9-2.1 4.2-4.4 4.2s-4.4-1.3-4.4-4.2v-5.3h2.5v5.1c0 1.5.8 2.1 1.9 2.1s1.9-.6 1.9-2.1v-5.1h2.5v5.3zm12.1-.7c0 2.8-1.9 4.8-4.5 4.8-1.3 0-2.2-.5-2.8-1.3v1h-2.4v-13.7h2.5v5.4c.6-.7 1.5-1.2 2.7-1.2 2.6.2 4.5 2.3 4.5 5zm-7.3 0c0 1.5 1 2.5 2.4 2.5 1.5 0 2.4-1.1 2.4-2.5s-.9-2.5-2.4-2.5c-1.4 0-2.4 1.1-2.4 2.5zm17.9 0v.8h-6.5c.3 1.3 1.2 1.9 2.4 1.9.8 0 1.7-.3 2.3-.9l1.5 1.6c-1 1-2.4 1.4-3.9 1.4-2.8 0-4.8-1.9-4.8-4.8s1.9-4.9 4.7-4.9c2.5.1 4.3 2.1 4.3 4.9zm-6.5-.8h4.1c-.2-1.2-.9-1.8-2-1.8-1.2-.1-1.9.6-2.1 1.8zm14.8-3.8l-.4 2.5c-.4-.2-1-.3-1.5-.3-1.2 0-1.9.7-1.9 2.1v5h-2.5v-9.2h2.4v1c.6-.9 1.5-1.3 2.6-1.3.6 0 1 .1 1.3.2zm10.4 3.4v5.9H853v-5.1c0-1.3-.7-2.1-1.8-2.1s-1.9.7-1.9 2.1v5h-2.5v-9.2h2.4v1.1c.7-1 1.7-1.3 2.7-1.3 2.1 0 3.6 1.5 3.6 3.6zm11.1 1.2v.8H860c.3 1.3 1.2 1.9 2.4 1.9.8 0 1.7-.3 2.3-.9l1.5 1.6c-1 1-2.4 1.4-3.9 1.4-2.8 0-4.8-1.9-4.8-4.8s1.9-4.9 4.7-4.9c2.6.1 4.4 2.1 4.4 4.9zm-6.6-.8h4.1c-.2-1.2-.9-1.8-2-1.8-1.2-.1-1.8.6-2.1 1.8zm15.2-1.5h-3.3v3.4c0 1.2.6 1.6 1.4 1.6.6 0 1.2-.3 1.7-.6l.9 1.9c-.8.6-1.7 1-3.1 1-2.3 0-3.5-1.3-3.5-3.7v-3.6h-1.8v-2.2h1.8v-2.7h2.5v2.7h3.3v2.2h.1zm10.7 2.3v.8h-6.5c.3 1.3 1.2 1.9 2.4 1.9.8 0 1.7-.3 2.3-.9l1.5 1.6c-1 1-2.4 1.4-3.9 1.4-2.8 0-4.8-1.9-4.8-4.8s1.9-4.9 4.7-4.9c2.4.1 4.2 2.1 4.3 4.9zm-6.6-.8h4.1c-.2-1.2-.9-1.8-2-1.8-1.2-.1-1.9.6-2.1 1.8zm15.1-1.2c-.7-.4-1.9-.7-2.9-.8-.9 0-1.4.3-1.4.8s.7.7 1.5.8l.8.1c2 .3 3.1 1.2 3.1 2.8 0 1.9-1.6 3.1-4.2 3.1-1.3 0-2.9-.2-4.1-1.1l1-1.9a5.43 5.43 0 0 0 3.1.9c1.2 0 1.7-.3 1.7-.9 0-.4-.5-.7-1.5-.8l-.8-.1c-2.1-.3-3.2-1.2-3.2-2.8 0-1.9 1.5-3 3.9-3 1.5 0 2.6.3 3.9.9l-.9 2zM491.8 434.5h-1.2v5.5h-2.7v-13.3h2.7v5.4h1.3l4.4-5.4h3.3l-5.6 6.5 6 6.8h-3.4zm17.4 1.6c0 2.9-2.1 4.2-4.4 4.2s-4.4-1.3-4.4-4.2v-5.3h2.5v5.1c0 1.5.8 2.1 1.9 2.1s1.9-.6 1.9-2.1v-5.1h2.5v5.3zm12.1-.7c0 2.8-1.9 4.8-4.5 4.8-1.3 0-2.2-.5-2.8-1.3v1h-2.4v-13.7h2.5v5.4c.6-.7 1.5-1.2 2.7-1.2 2.6.1 4.5 2.2 4.5 5zm-7.3 0c0 1.5 1 2.5 2.4 2.5 1.5 0 2.4-1.1 2.4-2.5s-.9-2.5-2.4-2.5c-1.4-.1-2.4 1-2.4 2.5zm17.9 0v.8h-6.5c.3 1.3 1.2 1.9 2.4 1.9.8 0 1.7-.3 2.3-.9l1.5 1.6c-1 1-2.4 1.4-3.9 1.4-2.8 0-4.8-1.9-4.8-4.8s1.9-4.9 4.7-4.9c2.5 0 4.3 2 4.3 4.9zm-6.6-.9h4.1c-.2-1.2-.9-1.8-2-1.8s-1.8.7-2.1 1.8zm14.9-3.8l-.4 2.5c-.4-.2-1-.3-1.5-.3-1.2 0-1.9.7-1.9 2.1v5h-2.5v-9.2h2.4v1c.6-.9 1.5-1.3 2.6-1.3.6 0 1 .1 1.3.2zm10.4 3.4v5.9h-2.5v-5.1c0-1.3-.7-2.1-1.8-2.1s-1.9.7-1.9 2.1v5h-2.5v-9.2h2.4v1.1c.7-1 1.7-1.3 2.7-1.3 2.1 0 3.6 1.5 3.6 3.6zm11.1 1.3v.8h-6.5c.3 1.3 1.2 1.9 2.4 1.9.8 0 1.7-.3 2.3-.9l1.5 1.6c-1 1-2.4 1.4-3.9 1.4-2.8 0-4.8-1.9-4.8-4.8s1.9-4.9 4.7-4.9c2.5 0 4.3 2 4.3 4.9zm-6.6-.9h4.1c-.2-1.2-.9-1.8-2-1.8-1.2 0-1.8.7-2.1 1.8zm15.2-1.5H567v3.4c0 1.2.6 1.6 1.4 1.6.6 0 1.2-.3 1.7-.6l.9 1.9c-.8.6-1.7 1-3.1 1-2.3 0-3.5-1.3-3.5-3.7V433h-1.8v-2.2h1.8V428h2.5v2.7h3.3v2.3h.1zm10.6 2.4v.8h-6.5c.3 1.3 1.2 1.9 2.4 1.9.8 0 1.7-.3 2.3-.9l1.5 1.6c-1 1-2.4 1.4-3.9 1.4-2.8 0-4.8-1.9-4.8-4.8s1.9-4.9 4.7-4.9c2.5 0 4.3 2 4.3 4.9zm-6.5-.9h4.1c-.2-1.2-.9-1.8-2-1.8-1.2 0-1.9.7-2.1 1.8zm15.1-1.1c-.7-.4-1.9-.7-2.9-.8-.9 0-1.4.3-1.4.8s.7.7 1.5.8l.8.1c2 .3 3.1 1.2 3.1 2.8 0 1.9-1.6 3.1-4.2 3.1-1.3 0-2.9-.2-4.1-1.1l1-1.9a5.43 5.43 0 0 0 3.1.9c1.2 0 1.7-.3 1.7-.9 0-.4-.5-.7-1.5-.8l-.8-.1c-2.1-.3-3.2-1.2-3.2-2.8 0-1.9 1.5-3 3.9-3 1.5 0 2.6.3 3.9.9l-.9 2zM188.6 234.6h-1.2v5.5h-2.7v-13.3h2.7v5.4h1.3l4.4-5.4h3.3l-5.6 6.5 6 6.8h-3.4zm17.4 1.6c0 2.9-2.1 4.2-4.4 4.2s-4.4-1.3-4.4-4.2v-5.3h2.5v5.1c0 1.5.8 2.1 1.9 2.1s1.9-.6 1.9-2.1v-5.1h2.5v5.3zm12.1-.7c0 2.8-1.9 4.8-4.5 4.8-1.3 0-2.2-.5-2.8-1.3v1h-2.4v-13.7h2.5v5.4c.6-.7 1.5-1.2 2.7-1.2 2.6.1 4.5 2.2 4.5 5zm-7.2 0c0 1.5 1 2.5 2.4 2.5 1.5 0 2.4-1.1 2.4-2.5s-.9-2.5-2.4-2.5-2.4 1-2.4 2.5zm17.8 0v.8h-6.5c.3 1.3 1.2 1.9 2.4 1.9.8 0 1.7-.3 2.3-.9l1.5 1.6c-1 1-2.4 1.4-3.9 1.4-2.8 0-4.8-1.9-4.8-4.8s1.9-4.9 4.7-4.9c2.5 0 4.3 2 4.3 4.9zm-6.5-.9h4.1c-.2-1.2-.9-1.8-2-1.8-1.2 0-1.9.7-2.1 1.8zm14.8-3.8l-.4 2.5c-.4-.2-1-.3-1.5-.3-1.2 0-1.9.7-1.9 2.1v5h-2.5v-9.2h2.4v1c.6-.9 1.5-1.3 2.6-1.3.6 0 1 .1 1.3.2zm10.4 3.4v5.9H245V235c0-1.3-.7-2.1-1.8-2.1s-1.9.7-1.9 2.1v5h-2.5v-9.2h2.4v1.1c.7-1 1.7-1.3 2.7-1.3 2 0 3.5 1.5 3.5 3.6zm11.1 1.3v.8H252c.3 1.3 1.2 1.9 2.4 1.9.8 0 1.7-.3 2.3-.9l1.5 1.6c-1 1-2.4 1.4-3.9 1.4-2.8 0-4.8-1.9-4.8-4.8s1.9-4.9 4.7-4.9c2.5 0 4.3 2 4.3 4.9zm-6.5-.9h4.1c-.2-1.2-.9-1.8-2-1.8-1.2 0-1.9.7-2.1 1.8zm15.1-1.5h-3.3v3.4c0 1.2.6 1.6 1.4 1.6.6 0 1.2-.3 1.7-.6l.9 1.9c-.8.6-1.7 1-3.1 1-2.3 0-3.5-1.3-3.5-3.7v-3.6h-1.8v-2.2h1.8v-2.7h2.5v2.7h3.3v2.2h.1zm10.7 2.4v.8h-6.5c.3 1.3 1.2 1.9 2.4 1.9.8 0 1.7-.3 2.3-.9l1.5 1.6c-1 1-2.4 1.4-3.9 1.4-2.8 0-4.8-1.9-4.8-4.8s1.9-4.9 4.7-4.9c2.4 0 4.2 2 4.3 4.9zm-6.6-.9h4.1c-.2-1.2-.9-1.8-2-1.8-1.2 0-1.9.7-2.1 1.8zm15.1-1.1c-.7-.4-1.9-.7-2.9-.8-.9 0-1.4.3-1.4.8s.7.7 1.5.8l.8.1c2 .3 3.1 1.2 3.1 2.8 0 1.9-1.6 3.1-4.2 3.1-1.3 0-2.9-.2-4.1-1.1l1-1.9a5.43 5.43 0 0 0 3.1.9c1.2 0 1.7-.3 1.7-.9 0-.4-.5-.7-1.5-.8l-.8-.1c-2.1-.3-3.2-1.2-3.2-2.8 0-1.9 1.5-3 3.9-3 1.5 0 2.6.3 3.9.9l-.9 2z"/></g><path d="M305.7 119c4.5-26.3-13.1-51.3-39.4-55.8-22.9-4-45.4 8.9-53.5 30.7-10.9-8.3-26.5-6.3-34.8 4.6-3.3 4.3-5.1 9.7-5.1 15.1v.2c-20.2 2.2-34.9 20.4-32.8 40.7 2 18.8 17.9 33 36.7 33h120.4c19.2 0 34.8-15.6 34.8-34.8.1-15.9-10.8-29.8-26.3-33.7zm609.7 0c4.5-26.3-13.1-51.3-39.4-55.8-22.9-4-45.4 8.9-53.5 30.7-10.9-8.3-26.5-6.3-34.8 4.6-3.3 4.3-5.1 9.7-5.1 15.1v.2c-20.3 2.2-35 20.4-32.8 40.7 2 18.8 17.9 33 36.7 33h120.4c19.2 0 31.5-15.6 31.5-34.8.1-16.3-7.8-29.9-23-33.7h0zM609 319c4.5-26.3-13.1-51.3-39.4-55.8-22.9-4-45.4 8.9-53.5 30.7-10.9-8.3-26.5-6.3-34.8 4.6-3.3 4.3-5.1 9.7-5.1 15.1v.2c-20.3 2.2-35 20.4-32.8 40.7 2 18.8 17.9 33 36.7 33h120.4c19.2 0 34.8-15.6 34.8-34.8 0-15.9-10.9-29.8-26.3-33.7z" stroke="#000" fill="#fff"/><path d="M182.2 151.1v5.2h-2.1V143h5.2c3.1 0 4.7 1.5 4.7 4s-1.6 4-4.7 4h-3.1v.1zm0-6v4h3c1.7 0 2.5-.6 2.5-2s-.8-2-2.5-2h-3zm18.5 7.4c0 2.9-2.1 4.1-4.2 4.1s-4.2-1.2-4.2-4.1v-5.2h2v5.1c0 1.8 1 2.4 2.2 2.4s2.2-.6 2.2-2.4v-5.1h2v5.2zm12.5-.7c0 2.8-2 4.8-4.6 4.8-1.3 0-2.2-.5-2.9-1.3v1.1h-2v-13.7h2v5.7c.6-.8 1.6-1.3 2.9-1.3 2.5-.1 4.6 1.9 4.6 4.7zm-7.6 0c0 1.7 1.1 2.9 2.7 2.9 1.7 0 2.7-1.3 2.7-2.9s-1-2.9-2.7-2.9c-1.6 0-2.7 1.2-2.7 2.9zm12 4.5h-2v-13.7h2zm5.5-12.2c0 .8-.6 1.4-1.4 1.4s-1.4-.6-1.4-1.4.6-1.4 1.4-1.4 1.4.6 1.4 1.4zm-.4 12.2h-2v-9.1h2v9.1zm10.7-7.8l-1.3 1.4c-.6-.6-1.3-.9-2.2-.9-1.5 0-2.7 1.2-2.7 2.9s1.2 2.9 2.7 2.9c.9 0 1.7-.4 2.2-1l1.2 1.4c-.8 1-2 1.5-3.4 1.5-2.9 0-4.8-2.1-4.8-4.8s1.9-4.8 4.8-4.8c1.4-.1 2.7.4 3.5 1.4zm19.3-2.9l-1.8 1.2c-.8-1.2-2.1-1.9-3.7-1.9-2.7 0-4.7 2-4.7 4.8s2 4.8 4.7 4.8c1.6 0 2.9-.7 3.7-1.9l1.8 1.3c-1.1 1.7-3.1 2.7-5.5 2.7-4.1 0-7-2.9-7-6.9s2.9-6.9 7-6.9c2.4 0 4.5 1 5.5 2.8zm4.6 10.7h-2v-13.7h2zm12.2-4.5c0 2.7-2.1 4.8-4.9 4.8s-4.9-2.1-4.9-4.8 2.1-4.8 4.9-4.8 4.9 2.1 4.9 4.8zm-7.7 0c0 1.7 1.2 2.9 2.9 2.9s2.9-1.2 2.9-2.9-1.2-2.9-2.9-2.9-2.9 1.2-2.9 2.9zm18.5.7c0 2.9-2.1 4.1-4.2 4.1s-4.2-1.2-4.2-4.1v-5.2h2v5.1c0 1.8 1 2.4 2.2 2.4s2.2-.6 2.2-2.4v-5.1h2v5.2zm9.8-4.2v-5.7h2v13.7h-2v-1.1c-.6.8-1.6 1.3-2.9 1.3-2.5 0-4.6-2-4.6-4.8s2-4.8 4.6-4.8c1.3.1 2.3.6 2.9 1.4zm-5.4 3.5c0 1.6 1 2.9 2.7 2.9 1.6 0 2.7-1.3 2.7-2.9 0-1.7-1.1-2.9-2.7-2.9s-2.7 1.3-2.7 2.9zM497.4 355h-9.7v-13.3h9.6v2h-7.4v3.6h7.2v2h-7.2v3.7h7.6v2zm9.7-8v-5.7h2V355h-2v-1.1c-.6.8-1.6 1.3-2.9 1.3-2.5 0-4.6-2-4.6-4.8s2-4.8 4.6-4.8c1.3.1 2.3.6 2.9 1.4zm-5.4 3.5c0 1.6 1 2.9 2.7 2.9 1.6 0 2.7-1.3 2.7-2.9 0-1.7-1.1-2.9-2.7-2.9-1.7 0-2.7 1.3-2.7 2.9zm17.1-3.5v-1.1h2v8.5c0 2.9-1.8 4.6-4.9 4.6-1.4 0-2.9-.4-3.8-1.1l.7-1.7c.9.6 2 .9 3.1.9 1.9 0 2.9-1 2.9-2.7v-.7c-.7.9-1.7 1.3-3 1.3-2.1 0-4.2-1.7-4.2-4.7s2.1-4.7 4.2-4.7c1.3.1 2.3.6 3 1.4zm-5.2 3.4c0 1.5 1 2.8 2.7 2.8 1.6 0 2.7-1.2 2.7-2.8s-1.1-2.8-2.7-2.8c-1.7 0-2.7 1.2-2.7 2.8zm18.5.1v.7h-6.7c.3 1.6 1.4 2.3 2.7 2.3.9 0 1.9-.4 2.6-1l1 1.4c-1.1 1-2.4 1.3-3.7 1.3-2.7 0-4.7-1.9-4.7-4.8s1.9-4.8 4.5-4.8c2.5.1 4.3 2 4.3 4.9zm-6.8-.8h4.7c-.2-1.4-1-2.2-2.3-2.2-1.4 0-2.2.9-2.4 2.2zm26.4-5.4l-1.8 1.2c-.8-1.2-2.1-1.9-3.7-1.9-2.7 0-4.7 2-4.7 4.8s2 4.8 4.7 4.8c1.6 0 2.9-.7 3.7-1.9l1.8 1.3c-1.1 1.7-3.1 2.7-5.5 2.7-4.1 0-7-2.9-7-6.9s2.9-6.9 7-6.9c2.3 0 4.4 1 5.5 2.8zm4.5 10.7h-2v-13.7h2zm12.3-4.5c0 2.7-2.1 4.8-4.9 4.8s-4.9-2.1-4.9-4.8 2.1-4.8 4.9-4.8 4.9 2.1 4.9 4.8zm-7.8 0c0 1.7 1.2 2.9 2.9 2.9s2.9-1.2 2.9-2.9-1.2-2.9-2.9-2.9-2.9 1.2-2.9 2.9zm18.6.7c0 2.9-2.1 4.1-4.2 4.1s-4.2-1.2-4.2-4.1V346h2v5.1c0 1.8 1 2.4 2.2 2.4s2.2-.6 2.2-2.4V346h2v5.2zm9.7-4.2v-5.7h2V355h-2v-1.1c-.6.8-1.6 1.3-2.9 1.3-2.5 0-4.6-2-4.6-4.8s2-4.8 4.6-4.8c1.4.1 2.3.6 2.9 1.4zm-5.3 3.5c0 1.6 1 2.9 2.7 2.9 1.6 0 2.7-1.3 2.7-2.9 0-1.7-1.1-2.9-2.7-2.9-1.7 0-2.7 1.3-2.7 2.9zm201-199.4v5.2h-2.1V143h5.2c3.1 0 4.7 1.5 4.7 4s-1.6 4-4.7 4h-3.1v.1zm0-6v4h3c1.7 0 2.5-.6 2.5-2s-.8-2-2.5-2h-3zm16.3 2.2l-.5 2c-.4-.2-1-.3-1.5-.3-1.3 0-2.2.9-2.2 2.4v5h-2v-9.1h2v1c.6-.9 1.5-1.3 2.6-1.3.7 0 1.1.1 1.6.3zm4.4-3.2c0 .8-.6 1.4-1.4 1.4s-1.4-.6-1.4-1.4.6-1.4 1.4-1.4 1.4.6 1.4 1.4zm-.4 12.2h-2v-9.1h2v9.1zm7.8 0h-2.4l-3.7-9.1h2.2l2.7 7 2.7-7h2.1zm14.1 0h-2v-1.1c-.6.8-1.6 1.3-2.9 1.3-2.5 0-4.6-2-4.6-4.8s2-4.8 4.6-4.8c1.3 0 2.2.5 2.9 1.3v-1.1h2v9.2zm-7.4-4.5c0 1.6 1 2.9 2.7 2.9 1.6 0 2.7-1.3 2.7-2.9 0-1.7-1.1-2.9-2.7-2.9-1.7 0-2.7 1.3-2.7 2.9zm16.7-2.8h-3.5v4c0 1.2.6 1.7 1.4 1.7.6 0 1.3-.3 1.8-.6l.8 1.6c-.7.5-1.7.9-2.8.9-2.1 0-3.3-1.1-3.3-3.5v-4h-1.8v-1.8h1.8v-2.8h2v2.8h3.5v1.7h.1zm10.6 2.8v.7H840c.3 1.6 1.4 2.3 2.7 2.3.9 0 1.9-.4 2.6-1l1 1.4c-1.1 1-2.4 1.3-3.7 1.3-2.7 0-4.7-1.9-4.7-4.8s1.9-4.8 4.5-4.8c2.6.1 4.4 2 4.4 4.9zm-6.8-.8h4.7c-.2-1.4-1-2.2-2.3-2.2-1.4 0-2.2.9-2.4 2.2zm26.4-5.4l-1.8 1.2c-.8-1.2-2.1-1.9-3.7-1.9-2.7 0-4.7 2-4.7 4.8s2 4.8 4.7 4.8c1.6 0 2.9-.7 3.7-1.9l1.8 1.3c-1.1 1.7-3.1 2.7-5.5 2.7-4.1 0-7-2.9-7-6.9s2.9-6.9 7-6.9c2.3 0 4.4 1 5.5 2.8zm4.5 10.7h-2v-13.7h2zm12.3-4.5c0 2.7-2.1 4.8-4.9 4.8s-4.9-2.1-4.9-4.8 2.1-4.8 4.9-4.8 4.9 2.1 4.9 4.8zm-7.8 0c0 1.7 1.2 2.9 2.9 2.9s2.9-1.2 2.9-2.9-1.2-2.9-2.9-2.9-2.9 1.2-2.9 2.9zm18.6.7c0 2.9-2.1 4.1-4.2 4.1s-4.2-1.2-4.2-4.1v-5.2h2v5.1c0 1.8 1 2.4 2.2 2.4s2.2-.6 2.2-2.4v-5.1h2v5.2zm9.7-4.2v-5.7h2v13.7h-2v-1.1c-.6.8-1.6 1.3-2.9 1.3-2.5 0-4.6-2-4.6-4.8s2-4.8 4.6-4.8c1.4.1 2.3.6 2.9 1.4zm-5.3 3.5c0 1.6 1 2.9 2.7 2.9 1.6 0 2.7-1.3 2.7-2.9 0-1.7-1.1-2.9-2.7-2.9-1.7 0-2.7 1.3-2.7 2.9z" fill="#000"/><path d="M609 119c4.5-26.3-13.1-51.3-39.4-55.8-22.9-4-45.4 8.9-53.5 30.7-10.9-8.3-26.5-6.3-34.8 4.6-3.3 4.3-5.1 9.7-5.1 15.1v.2c-20.3 2.2-35 20.4-32.8 40.7 2 18.8 17.9 33 36.7 33h120.4c19.2 0 34.8-15.6 34.8-34.8 0-15.9-10.9-29.8-26.3-33.7z" stroke="#497490" stroke-width="5" fill="#fff"/><path d="M482.1 148.6h7.2V143h2.1v13.3h-2.1v-5.7h-7.2v5.7H480V143h2.1zm14.3 11.6h-2.2l3.3-5.7-4-7.2h2.2l2.9 5.2 2.8-5.2h2.2zm18.3-8.4c0 2.8-2 4.8-4.6 4.8-1.3 0-2.2-.5-2.9-1.3v1.1h-2v-13.7h2v5.7c.6-.8 1.6-1.3 2.9-1.3 2.6-.1 4.6 1.9 4.6 4.7zm-7.6 0c0 1.7 1.1 2.9 2.7 2.9 1.7 0 2.7-1.3 2.7-2.9s-1-2.9-2.7-2.9c-1.6 0-2.7 1.2-2.7 2.9zm16.2-4.5l-.5 2c-.4-.2-1-.3-1.5-.3-1.3 0-2.2.9-2.2 2.4v5h-2v-9.1h2v1c.6-.9 1.5-1.3 2.6-1.3.6 0 1.1.1 1.6.3zm4.4-3.2c0 .8-.6 1.4-1.4 1.4s-1.4-.6-1.4-1.4.6-1.4 1.4-1.4 1.4.6 1.4 1.4zm-.4 12.2h-2v-9.1h2v9.1zm9.8-8v-5.7h2v13.7h-2v-1.1c-.6.8-1.6 1.3-2.9 1.3-2.5 0-4.6-2-4.6-4.8s2-4.8 4.6-4.8c1.4.1 2.3.6 2.9 1.4zm-5.3 3.5c0 1.6 1 2.9 2.7 2.9 1.6 0 2.7-1.3 2.7-2.9 0-1.7-1.1-2.9-2.7-2.9-1.7 0-2.7 1.3-2.7 2.9zm27.6-6.2l-1.8 1.2c-.8-1.2-2.1-1.9-3.7-1.9-2.7 0-4.7 2-4.7 4.8s2 4.8 4.7 4.8c1.6 0 2.9-.7 3.7-1.9l1.8 1.3c-1.1 1.7-3.1 2.7-5.5 2.7-4.1 0-7-2.9-7-6.9s2.9-6.9 7-6.9c2.3 0 4.4 1 5.5 2.8zm4.5 10.7h-2v-13.7h2zm12.3-4.5c0 2.7-2.1 4.8-4.9 4.8s-4.9-2.1-4.9-4.8 2.1-4.8 4.9-4.8 4.9 2.1 4.9 4.8zm-7.8 0c0 1.7 1.2 2.9 2.9 2.9s2.9-1.2 2.9-2.9-1.2-2.9-2.9-2.9-2.9 1.2-2.9 2.9zm18.6.7c0 2.9-2.1 4.1-4.2 4.1s-4.2-1.2-4.2-4.1v-5.2h2v5.1c0 1.8 1 2.4 2.2 2.4s2.2-.6 2.2-2.4v-5.1h2v5.2zm9.8-4.2v-5.7h2v13.7h-2v-1.1c-.6.8-1.6 1.3-2.9 1.3-2.5 0-4.6-2-4.6-4.8s2-4.8 4.6-4.8c1.3.1 2.2.6 2.9 1.4zm-5.4 3.5c0 1.6 1 2.9 2.7 2.9 1.6 0 2.7-1.3 2.7-2.9 0-1.7-1.1-2.9-2.7-2.9-1.7 0-2.7 1.3-2.7 2.9z" fill="#000"/></g></svg>